/* XPM */
static char *_c830403ff14457386144bd8583c7bdfq23oEduGJTO3wB54[] = {
/* columns rows colors chars-per-pixel */
"64 64 256 2 ",
"   c black",
".  c #1F170B",
"X  c #170F07",
"o  c #4B4B4B",
"O  c white",
"+  c #1B1B1B",
"@  c #131313",
"#  c #0B0B0B",
"$  c #070707",
"%  c #2F371F",
"&  c #232B0F",
"*  c #171F07",
"=  c #0F1700",
"-  c #4F3B2B",
";  c #473323",
":  c #3F2B1B",
">  c #FFB7B7",
",  c #F7ABAB",
"<  c #F3A3A3",
"1  c #EB9797",
"2  c #E78F8F",
"3  c #DF8787",
"4  c #DB7B7B",
"5  c #D37373",
"6  c #CB6B6B",
"7  c #C76363",
"8  c #BF5B5B",
"9  c #BB5757",
"0  c #B34F4F",
"q  c #AF4747",
"w  c #A73F3F",
"e  c #A33B3B",
"r  c #9B3333",
"t  c #972F2F",
"y  c #8F2B2B",
"u  c #8B2323",
"i  c #831F1F",
"p  c #7F1B1B",
"a  c #771717",
"s  c #731313",
"d  c #6B0F0F",
"f  c #670B0B",
"g  c #5F0707",
"h  c #5B0707",
"j  c #530707",
"k  c #4F0000",
"l  c #470000",
"z  c #430000",
"x  c #FFEBDF",
"c  c #FFE3D3",
"v  c #FFDBC7",
"b  c #FFD3BB",
"n  c #FFCFB3",
"m  c #FFC7A7",
"M  c #FFBF9B",
"N  c #FFBB93",
"B  c #FFB383",
"V  c #F7AB7B",
"C  c #EFA373",
"Z  c #E79B6B",
"A  c #DF9363",
"S  c #D78B5B",
"D  c #CF8353",
"F  c #CB7F4F",
"G  c #BF7B4B",
"H  c #B37347",
"J  c #AB6F43",
"K  c #A36B3F",
"L  c #9B633B",
"P  c #8F5F37",
"I  c #875733",
"U  c #7F532F",
"Y  c #774F2B",
"T  c #6B4727",
"R  c #5F4323",
"E  c #533F1F",
"W  c #4B371B",
"Q  c #3F2F17",
"!  c #332B13",
"~  c #2B230F",
"^  c #EFEFEF",
"/  c #E7E7E7",
"(  c #DFDFDF",
")  c gray86",
"_  c LightGray",
"`  c #CBCBCB",
"'  c gray78",
"]  c gray75",
"[  c #B7B7B7",
"{  c gray70",
"}  c gray67",
"|  c #A7A7A7",
" . c #9F9F9F",
".. c #979797",
"X. c #939393",
"o. c #8B8B8B",
"O. c #838383",
"+. c gray50",
"@. c #777777",
"#. c #6F6F6F",
"$. c gray42",
"%. c gray39",
"&. c #5B5B5B",
"*. c gray34",
"=. c gray31",
"-. c gray28",
";. c #434343",
":. c gray23",
">. c #373737",
",. c #2F2F2F",
"<. c #272727",
"1. c #232323",
"2. c #77FF6F",
"3. c #6FEF67",
"4. c #67DF5F",
"5. c #5FCF57",
"6. c #5BBF4F",
"7. c #53AF47",
"8. c #4B9F3F",
"9. c #439337",
"0. c #3F832F",
"q. c #37732B",
"w. c #2F6323",
"e. c #27531B",
"r. c #1F4317",
"t. c #17330F",
"y. c #13230B",
"u. c #0B1707",
"i. c #BFA78F",
"p. c #B79F87",
"a. c #AF977F",
"s. c #A78F77",
"d. c #9F876F",
"f. c #9B7F6B",
"g. c #937B63",
"h. c #8B735B",
"j. c #836B57",
"k. c #7B634F",
"l. c #775F4B",
"z. c #6F5743",
"x. c #67533F",
"c. c #5F4B37",
"v. c #574333",
"b. c #533F2F",
"n. c #9F8363",
"m. c #8F7753",
"M. c #836B4B",
"N. c #775F3F",
"B. c #675333",
"V. c #5B472B",
"C. c #4F3B23",
"Z. c #43331B",
"A. c #7B7F63",
"S. c #6F7357",
"D. c #676B4F",
"F. c #5B6347",
"G. c #53573B",
"H. c #474F33",
"J. c #3F472B",
"K. c #373F27",
"L. c #FFFF73",
"P. c #EBDB57",
"I. c #D7BB43",
"U. c #C39B2F",
"Y. c #AF7B1F",
"T. c #9B5B13",
"R. c #874307",
"E. c #732B00",
"W. c white",
"Q. c #FFDBDB",
"!. c #FFBBBB",
"~. c #FF9B9B",
"^. c #FF7B7B",
"/. c #FF5F5F",
"(. c #FF3F3F",
"). c #FF1F1F",
"_. c red",
"`. c #EF0000",
"'. c #E30000",
"]. c #D70000",
"[. c #CB0000",
"{. c #BF0000",
"}. c #B30000",
"|. c #A70000",
" X c #9B0000",
".X c #8B0000",
"XX c #7F0000",
"oX c #730000",
"OX c #670000",
"+X c #5B0000",
"@X c #4F0000",
"#X c #430000",
"$X c #E7E7FF",
"%X c #C7C7FF",
"&X c #ABABFF",
"*X c #8F8FFF",
"=X c #7373FF",
"-X c #5353FF",
";X c #3737FF",
":X c #1B1BFF",
">X c blue",
",X c #0000E3",
"<X c #0000CB",
"1X c #0000B3",
"2X c #00009B",
"3X c #000083",
"4X c #00006B",
"5X c #000053",
"6X c white",
"7X c #FFEBDB",
"8X c #FFD7BB",
"9X c #FFC79B",
"0X c #FFB37B",
"qX c #FFA35B",
"wX c #FF8F3B",
"eX c #FF7F1B",
"rX c #F37317",
"tX c #EB6F0F",
"yX c #DF670F",
"uX c #D75F0B",
"iX c #CB5707",
"pX c #C34F00",
"aX c #B74700",
"sX c #AF4300",
"dX c white",
"fX c #FFFFD7",
"gX c #FFFFB3",
"hX c #FFFF8F",
"jX c #FFFF6B",
"kX c #FFFF47",
"lX c #FFFF23",
"zX c yellow",
"xX c #A73F00",
"cX c #9F3700",
"vX c #932F00",
"bX c #872300",
"nX c #4F3B27",
"mX c #432F1B",
"MX c #372313",
"NX c #2F1B0B",
"BX c #000053",
"VX c #000047",
"CX c #00003B",
"ZX c #00002F",
"AX c #000023",
"SX c #000017",
"DX c #00000B",
"FX c cyan",
"GX c #FF9F43",
"HX c #FFE74B",
"JX c #FF7BFF",
"KX c magenta",
"LX c #CF00CF",
"PX c #9F009B",
"IX c #6F006B",
"UX c #A76B6B",
/* pixels */
">.4X4X4X4X4X4X4X4X4X4X4X4X4X4X4X4X4X4X4X4X4X4X4X4X4X4X4X>.>.4X4X4X4X4X4X4X4X4X4X4X4X4X>.>.4X4X4X4X4X4X4X4X4X4X4X4X>.4X4X4X4X4X>.",
"1.4X4X4X4X4X4X4X4X4X4X4X4X4X4X4X4X4X4X4X4X4X5X5X5XVXCXCXZXZX4X4X4X4X4X4X4X4X5XVXVXVXVXZXZX4X4X4X4X4X4X4X4XVXVXZXZXZX4X4X4X4X5XSX",
"  4X4X4XVX4XCX4X4X5XCX4X4XCX4X4X4XCXCX4XVXCXCXCXCXZXZXZX    4X4X5X5XVX4X4X5XVXVXVXVXZX    4X3X4X3X4X3X3X3X3X3X5XCX  4X4XVX5XVX  ",
"  4X5XCXVX5X3X3X5X4X4X4X4X4X4X4X4XVXCXCX5X5XCXCXCXCXZXZX    4X5X4X4XVX5X5XCXVXCX4XZXZX    4X4X3X3X4X3X3X4X3X4X5XCX  4X4X4X5XZX  ",
"  4XVX4XCX5X3X3X3X5X5X5X4X4XCX4X4X4X5XCXCXZXCXVXVXVXCXZX    4X5XVXVX5X5XCXVXCXZXZXZXZX    4X3X4X4X3X3X4X4X5XVXVXZX  VXZXCXCXZX  ",
"  4XVXCX4X5X5X3X3X5XCX5X4XCX5X5X4X4XCXVXVXZXCXVXVXVXCXZX    4X4XVX4X4XCXZXZXZXVXCXZXZX    4X3X4X3X1X3X4X3X4X5XZXCX  5XVXZXZXZX  ",
"  4X5X5X4X4XCX5X4X5XCX5X5XCX5X5X5XCXCXVXVXCXZXCXCXCXCXZX    4X4X4XVXVXCXZXVXVXVXZXCXZX    4X4X3X4X3X3X4X4X4XCXCXZX  5XCXZXZXZX  ",
"  4X4X5X4X4X4XCX5XCXCX5X5X5XVX5X5XVXCXCXCXZXSXSXZXSXSXZX    4X4XVXCXVXVXVXCXVXCXZXZXZX    4X4X3X4X4X4X4X4X4XCXZXCX  5XZXZXZXZX  ",
"  4X5XCX5X4X4XVX5XCXVXCX5X5XCXVXZXZXZXVXCXZXSXSXZXSXSXSX    4X5XVXVXZXVX4X4XCXZXCXZXZX    4X4X3X4X4X3X4X4X4X5XZXZX              ",
"  4XVXVXVX4XCXCXCX5X5XVXCXCXCXCXZXSXSXZXCXCXZXSXZXCXSXSX    4XVXVXZXCXCXVXVXZXZXZXZXZX    4X4X3X4X4X4X4XVX5XVXZXZX  5X4X4X4X4X  ",
"  5XCXVX4XVXVXVXVX5X5X5XVXCXVXCXZXSXSXSXCXZXCXCXCXZXZXZX    5XVXCXCXZXVXVXZXCXZXZXZXZX    4X4X3X3X4X3X4XVXVXCXZXZX  4X4X5X4XVX  ",
"  5XVX5XCXCX4XVXVXCX5X5XVXCXCXCXCXSXSXSXZXCXCXCXCXZXZXZX    5XVXCXZXCXZXVXZXZXZXZXZXSX    4X4X3X3X4X4XVX4X5XCXZXZX  5X4XVX5XZX  ",
"  5XCX5XCXZXVXVXCXZXCXZXCXZXZXCXCXZXSXSXZXZXZXZXZXSXSXSX    5XCXVXCXCXCXZXSXSXZXZXSXZX    4X4X3X3X4X5X5XCXVXCXCXZX  5X4X5XZXZX  ",
"  5X5XCXCXCXZXZXZXZXZXCXZXZXZXZXZXZXZXZXZXZXZXZXSXSXSXZX    VXVXZXZXCXCXZXSXSXSXZXSXSX    4X4X4X3XVX5XVX5XCXCXCXZX  VXVXCXZXZX  ",
"  5XCX5XZXZXZXZXCXZXZXZXZXZXZXSXZXSXSXZXZXSXZXSXZXSXSXSX    VXZXVXZXZXZXZXZXSXSXSXZXSX    5X3X4X3X3XVX4XVXZXCXCXZX  CXZXZXZXZX  ",
"                                                                                          5X3X4X4X5X5XVXVXZXSXZXZX              ",
"4X3X4X4X4X4X4X4X4X4X4X4X4X4X4X                                                            5X4X3X5X3XCX5XCXCXSXSXSX  ZX3X3X3X3X3X",
"3X4X4X5X4X3X4X4XVX4X4XCX4X5XCX      ZXCX5XCX5X5X4X4XCXCXZXZX          ZXZX5X5X4XVXCXZXZX  5X3X4X3X5X5X3X5XCXZXSXSX  VX3X3X2X3X3X",
"3X4X5X5XVXVXVX5XCX5X5XCXCX5X5X    ZXCX5X5X5X5X4X4X4X4XVXZXZXZXSXZX    ZX5X4XCXVXCXVXCXZX  5X5X4X4X3X5X5XCXCXZXSXSX  4X3X2X1X2X4X",
"4X4X5X4X4XVXVXVX5XCX5XCXCXCXCX    5X5X5X4X4X4X4XCXVX5XZXZXZXSXZXSX    CX4XCXZXZXCXZXZXCX  VX4X4X3X4X5XVXCXZXCXZXZX  4X3X3X2X4X3X",
"4XVX5X4X3XVXCXCXVX5XCX5XCXCXCX    4X5X4XVX4X4XCXZXZXCXZXZXZXZXSXCX    VXVX4XCXZXZXSXSXZX  VX3X4X4X4X5XVXCXCXZXCXZX  4X3X3X4X4X4X",
"4X4XVX5X4XVXCXVXCXCX4X5XVXCXCX    4X4X4X4X4X4X5XZXCXZXZXSXSXZXZXZX    ZX4XVXVXZXZXSXSXSX  CX4X4X4X4XVXCXCXVXCXZXZX  3X3X3X4X3X4X",
"4XVXCXVX5X4X5XCXCX5X4X4X5XCXCX  ZX4X4X4X4X3X5XVXCXZXZXZXSXSXSXZXZX    ZXZXZXZXZXZXZXZXZX  CX5X4X4XVXZXCXVXVXVXCXZX  4X3X4X3X4X4X",
"4X4XVX4X4X4XCX5X5XCXVX4X4XCXZX  ZX5X4X4XVXCXVXVXZXZXCXZXZXSXSXZXZX                        CX5X5X3XCXCXZXCXVXCXCXZX  4X3X4X4X5X3X",
"4X4X5XVX4X4X5X5X5XCXCXZXCXCXZX  ZX5X4XVXCX5XVXZXZXZXZX5XZXCXZXCXZX  4X4X3X3X4X4X5X5XVX    5X5X4X5X5XCXZXZXCXCXSXSX  4X3X3X4X3X3X",
"4X4XVXCXVXVXCXZXCX5XCXZXCXCXCX  ZX5XVXCX4X4X5XCXZXCXVX3X4XVXZXZXZX  4X3X3X4X5XVXZXVXCX    5X3X4X4X5XCXCXZXZXZXSXSX  4X3X4X3X3X4X",
"4X5XCXVX4X5XCXVX5XCXZXCXZXCXCX  ZXVXVXCX5X4X5X5XVXVX5X4XVXCXCXZXCX  4X5X4X4XVXZX4XZXZX    4X3X4X3X4X5XVXZXCXCXZXSX  4X3X3X3X4X4X",
"4X5X4X5X5XCX4XVXCXCXZXZXZXSXZX    CXCXVX4X1X4XVX4X5XCX5XVXZXVXZXCX  4X4X5XCXVX4XVXZXZX    4X4X4X3X4X5XCXZXCXCXCXZX  VX3X3X3X4X4X",
"4XVXVXCXCX4X4X4XVXCXCXZXCXZXZX    CXCXVX5X4X4X4X5X4X4XVX5XCXZXCXZX  4X4X4X5X4XZXZXVXZX    4X4X5X4XVX5XVXCXZXCXCXZX  VX3X4X3X3X4X",
"4X5XVXCX5XVX4X4X5XVXZXSXSXZXZX    CXVX5X4XVX4XVX4X4XZX4XZXZXZXSXSX  4X3X4X4XVXZXZXZXZX    4X5X4XVXCXCXCXCXZXSXSXZX  VX3X3X3X4X4X",
"5XVX5X5XVXCXVX5X5XVXZXSXSXSXSX    ZXCXCX5XCX5X4X5X4X4XZXZXZXCXSXSX  4X5X4X4XVXZXZXZXZX    4X5X3X4X5XVXZXZXZXSXSXSX  VX3X3X4X5X4X",
"5XVXVXCXVXVXCXVXCXCXCXZXSXSXZX    ZXZXCXCXCXCX5X4XZXCX5XZXCXZXZXZX  4X5X5X4XCXZXZXZXZX    4X4X4X3X4XVXCXZXCXCXSXSX  VX3X4X3X4X5X",
"5XVX4X5XZXCXCXZXCXCXZXZXZXZXSX        ZXZXZXZXZXZXZXZXZXZXZXZXZX    4X5X4XZXZXCXZXZXZX    4X4X4X4X4X4X5XCXZXCXZXSX  VX3X4X3XVXVX",
"5X4X5XVXVXCXZXCXZXZXCXZXZXSXZX                                      4X4XVXCXZXZXZXZXZX    4X3X3X4X5X5X5X5XVXZXZXZX  VX3X3XVX5XVX",
"CX5X5XVXCXCXCXCXCXZXZXZXZXZXSX      ZXZXZXZXZXZXZXZXZXZXZXZXZXZX    4XVXVXZXZXCXCXZXZX    4X3X3X4X5XCX5X5XVXCXZXZX  ZX3X4X3X5X5X",
"CXVXVXCXZXCXCXCXCXZXSXZXSXSXZX      ZXZXCX5X5XCX5XVXVXCXCXZXZXZX    4X4XVXCXZXCXCXCXZX    4X5X3X5X3XCXZXVXCXZXCXZX  ZX3X4X5X5XVX",
"CXVXZXZXCXZXCXCXCXZXZXZXSXSXSX      ZXCX5X5XVX5XCXZXVXZXZXVXZXZX    4X4XCX5XZXZXCXCXZX    4X4X4X4X5X5XCXCXZXCXZXZX  ZX4X4X5XVXVX",
"CX5XCXZXCXZXZXZXZXSXZXZXSXSXSX      ZX5XVXZX5X5XZXVXZXZXSXSXZXZX    4X4X5X4XCXZXZXCXZX    4X3X4X5X5XZXCXZXCXZXCXZX  ZX4X5XVX5XVX",
"CXVX5XVXZXCXZXZXZXZXZXSXSXZXSX      ZX5XCX5XCXCX5XZXVXZXSXSXSXZX    4X5X4X5XVXCXZXZXZX    4X3X5X4X5XZXZXZXZXCXZXZX  ZX4X5X5X5XVX",
"CX5XVXCXZXZXCXZXZXZXSXZXSXSXSX      ZXVX5X5XCXZXZXZXZXZXZXSXSXZX    4X4XVXCXCXZXSXSXZX    5X4X5X5XCXCXZXSXSXZXZXSX  ZX5X5X5XCX5X",
"                                    ZX5XVXCXZXZXZXZXZXZXZXZXZXZX    5X5XCXCXZXZXSXSXSX    5X4X5XCXZXCXZXSXSXSXZXZX              ",
"            ZXZXZXZXVXVXVXCXZXZXZXZX                                5X4XCXZXZXZXZXSXSX    VXCXZXZXZXZXZXZXSXSXZXZX    ZXZXZXZX  ",
"    5X4X4X3X3X3X3X3X3X3X3X3X3X3X3X4X4X4X4X4X5X5XCX                  5X5XCXZXCXCXZXZXZX    VXCXZXZXZXSXZXSXSXZXZXSX    ZXZXCXZX  ",
"    4X3X3X3X3X3X4X4X4X3X4X4X4X3X4X4X4X4XCXVXVXVXZX    ZXZXZXZXZX    5XCXVXZXCXCXCXZXZX                                ZXZXZXZX  ",
"    4X3X4X4X4X4X4X3X3X3X3X4X3X3X3X4X4XVX4X4XCXZXZX    ZX5XVX4XCX    VXCXVXZXZXCXCXZXZX                                          ",
"    3X3X3X4X4X4X5X5X4X3X3X3X5X4XVX4XVXCX4X4X4XVXZX    ZX4X4X5XZX    CXCXZXZXZXZXZXZXZX      3X3X3X3X3X3X3X3X3X3X3X3X3X4X4X4X4X  ",
"    3X4X4X4X4X4X5X5X5X3X3X3XVXVX4XCXZXCXVX4X4XVXZX    ZX4X4X4XVX                            3X3X3X3X4X4X4X4X4X4X4X4X4X4X3X4XVX  ",
"    3X3X4X3X3X4X4X5X5X4X5X3X3X4X4X4XCXZXCXVXSXSXZX    ZX4XVXZXZX    VX5X4X4X4X4X4X5XVXVX    3X4X4X3X4X4X5X4X4X4X4X5X3X3X5X5XVX  ",
"    3X3X5X3X3X3XVX4X4X4X4XCX4X4X2X4X5XZXZXZXSXSXSX    ZX5XZXZXZX    5X4X4X4X5X4X5X4XZXZX    3X3X4X4X4X3X3X5X4X4X5XVXCX5XZXVXCX  ",
"    3X3X3X3X3X3X3XVX4X4XCX4XVX4X4X5XCX5X5XCXSXSXSX    ZXVXZXZXZX    4X4X4X4XVXCXVXZXZXZX    3X4X3X4X4X4X4X4X4X4X5X5X4XCXCXCXZX  ",
"    3X4X3X5X4X4X3X4X5X5X5X3X4X4XZXCX5XCXCXZXZXSXSX                  5X4XVXVXCXZXZXZXZXZX    3X3X4X4X4X4X5X4X5X5XVX4XVXVX5XZXZX  ",
"    3X4X5X5X3X3X3X4XVX4XVXVX4X4XCXCXCX5XZXCXCXZXZX                                          3X4X4X4X5X5X3X4X4X5X4XCXZX5X5XZXZX  ",
"    3X4X3X4X3X1X3X5X5X4X5XVXCXVX4XCXZXCXZXCXCXCXZX    5X5X5X4X4X4X4X4X4X4X5X5X5XVXVXZXZX    3X4X4X5X5X4X4X5XCX5XCXVX5X5XCXZXCX  ",
"    3X4X3X4X3X3X3X4XCX4X4XVX5X5XCXCXCXZXZXCXCXCXZX    5X4X5XVX4XVX5X4X4XVX5X4XCXCXZXZXZX    3X4X4X4X5XVX5XVX4XVXCXVX4XVXZXCXZX  ",
"    3X4X3X4X4X4XVXVXVX5X5X5X5X5XVXZXCXZXCXZXZXZXZX    5X5XVXVXVX4X4X4X4X5XVXVXVXZXCXCXZX    3X3X4X5X5XVXVXCXVX5X5X5XVXZXCXCXZX  ",
"    4X3X4X5X4XCXCX4XVX4X5X5XCXVXZXCXZXCXZXCXZXZXZX    4XVX4X4X4X5X4X5X4X4X4X5XVXCXCXCXZX    3X4X4X5XCXCXCXZXCXVX5XCXZXZXZXZXCX  ",
"    3X4X3X4XVXVX4XCXCX4X4X5XSXSXCXCXCXZXCXZXZXZXZX    4X4XVX4X5XVXCXVX5X4X4X5XVXCXZXZXZX    3X4X3X4X4XVXZXZXZXCXCXCXZXCXSXSXZX  ",
"    3X4X3X4X5XVXCXZXVXZXCXZXSXSXSXCXCXCXZXZXCXCXZX    5XVX4X5XVX4XCXVX5X5X5XVXCXZXZXZXZX    3X3X4X4XCXCX5XCXZXZXCXCXCXZXSXSXSX  ",
"    4X4XVXVXVX4X4XVXZXVXZXCXZXSXSXCXCXCXVXZXCXCXZX    5X4XVXCXCXCXVXZXCXCXVXCXCXCXZXZXZX    4X5X4X5X3X5XCXCXZXCXZXCXZXCXZXSXSX  ",
"    4X4XZXZXVX5X4X5XCX5XCXZXCXZXZXCXCXCXCXSXSXZXZX    VX5X4XCXZXCXZXCXZXCXCXZXCXCXCXZXZX    4X3X4XCX5XZXZXCXZXSXSXZXCXZXCXZXZX  ",
"    4X4XVXVXZXVX5X5XCXCXCXCXZXZXCXCXZXCXZXSXSXSXZX    VX5XVXCXZXZXCXZXCXCXZXCXZXCXZXZXZX    4XCX5XCXVX5XCXZXCXSXSXSXZXZXZXZXZX  ",
"1.ZX4X5XCXVX5XZXZXCXZXCXCXCXZXZXCXCXZXZXZXZXSXSXZXZXZXVXCXZXCXZXZXZXZXZXZXCXZXZXZXZXZXZXZXZX4X5XCXVXCXCXZXCXZXZXSXSXZXZXZXZXZXSX",
",.,.5XCXZXVXZXVXZXZXZXZXZXZXZXZXZX1.1.1.1.1.1.1.ZX,.,.VXVXCXZXZXZXZXZXZXZXZXZX1.1.1.1.1.,.,.VXCXZXZXZXZXCXZXZXZXZXZXZX1.1.1.1.,.",
">.>.4X3X3X3X3X3X3X3X3X3X>.>.>.>.>.;.;.;.-.-.-.-.>.>.>.4X3X3X3X3X3X3X3X>.>.;.;.-.-.-.-.-.>.>.4X3X3X3X3X3X4X4X4X>.>.>.>.;.;.-.-.>."
};
